<?xml version="1.0" encoding="UTF-8"?>
<svg version="1.1" xmlns="http://www.w3.org/2000/svg" width="446" height="442">
<path d="M0 0 C1.24840668 0.00323273 1.24840668 0.00323273 2.52203369 0.00653076 C15.66779544 0.06099128 28.47020821 0.60606826 41.375 3.3125 C42.32938965 3.51117676 43.2837793 3.70985352 44.26708984 3.91455078 C58.82425675 7.05055495 72.67433564 11.49612764 86.375 17.3125 C87.12330078 17.62944824 87.87160156 17.94639648 88.64257812 18.27294922 C110.15572818 27.5443671 129.75702894 40.72121804 146.7265625 56.83984375 C148.61932222 58.60697783 150.49990691 60.26113222 152.5 61.89453125 C154.8404598 63.86293426 156.79113157 65.73572227 158.75 68.0625 C161.18332449 70.92178939 163.65762518 73.72579119 166.1875 76.5 C175.22350343 86.7047529 182.70711305 97.44940553 189.375 109.3125 C189.7771875 110.01584473 190.179375 110.71918945 190.59375 111.44384766 C202.15496666 131.79791152 209.56163383 153.44901071 214.375 176.3125 C214.55289062 177.11494141 214.73078125 177.91738281 214.9140625 178.74414062 C225.99138106 230.57016676 213.27089437 289.29896284 184.99462891 333.46875 C176.53804006 346.37725203 166.98833805 358.12316169 156.375 369.3125 C155.90046387 369.81571777 155.42592773 370.31893555 154.93701172 370.83740234 C147.86054909 378.29274708 140.35864835 384.85823561 132.12207031 391.00537109 C130.45174451 392.25508103 128.80002836 393.52648041 127.1484375 394.80078125 C82.31045676 428.74172071 22.87861175 440.87173463 -32.1640625 433.3515625 C-74.70418011 426.8772269 -114.62292641 407.94087484 -146.140625 378.609375 C-148.27842273 376.6329205 -150.458984 374.74695344 -152.6875 372.875 C-191.47096367 338.98883724 -212.60017185 284.85589985 -217.375 234.6875 C-217.49062152 232.56401204 -217.56937334 230.43840572 -217.625 228.3125 C-217.64546387 227.53793457 -217.66592773 226.76336914 -217.68701172 225.96533203 C-218.95074159 169.97478781 -200.95074734 116.41505429 -163.625 74.3125 C-162.84125 73.41789062 -162.0575 72.52328125 -161.25 71.6015625 C-153.02396518 62.3187107 -144.42045715 53.93537499 -134.625 46.3125 C-134.09197266 45.89242676 -133.55894531 45.47235352 -133.00976562 45.03955078 C-95.18764559 15.42100905 -47.87003548 -0.22432519 0 0 Z " fill="#B39ECE" transform="translate(222.625,2.6875)"/>
<path d="M0 0 C1.24840668 0.00323273 1.24840668 0.00323273 2.52203369 0.00653076 C15.66779544 0.06099128 28.47020821 0.60606826 41.375 3.3125 C42.32938965 3.51117676 43.2837793 3.70985352 44.26708984 3.91455078 C58.82425675 7.05055495 72.67433564 11.49612764 86.375 17.3125 C87.12330078 17.62944824 87.87160156 17.94639648 88.64257812 18.27294922 C110.15572818 27.5443671 129.75702894 40.72121804 146.7265625 56.83984375 C148.61932222 58.60697783 150.49990691 60.26113222 152.5 61.89453125 C154.8404598 63.86293426 156.79113157 65.73572227 158.75 68.0625 C161.18332449 70.92178939 163.65762518 73.72579119 166.1875 76.5 C175.22350343 86.7047529 182.70711305 97.44940553 189.375 109.3125 C189.7771875 110.01584473 190.179375 110.71918945 190.59375 111.44384766 C202.15496666 131.79791152 209.56163383 153.44901071 214.375 176.3125 C214.55289062 177.11494141 214.73078125 177.91738281 214.9140625 178.74414062 C225.99138106 230.57016676 213.27089437 289.29896284 184.99462891 333.46875 C176.53804006 346.37725203 166.98833805 358.12316169 156.375 369.3125 C155.90046387 369.81571777 155.42592773 370.31893555 154.93701172 370.83740234 C147.86054909 378.29274708 140.35864835 384.85823561 132.12207031 391.00537109 C130.45174451 392.25508103 128.80002836 393.52648041 127.1484375 394.80078125 C82.31045676 428.74172071 22.87861175 440.87173463 -32.1640625 433.3515625 C-74.70418011 426.8772269 -114.62292641 407.94087484 -146.140625 378.609375 C-148.27842273 376.6329205 -150.458984 374.74695344 -152.6875 372.875 C-191.47096367 338.98883724 -212.60017185 284.85589985 -217.375 234.6875 C-217.70560298 228.73664632 -217.75651076 222.77149231 -217.8125 216.8125 C-217.82571289 215.85520996 -217.83892578 214.89791992 -217.85253906 213.91162109 C-217.85762322 209.12997205 -217.55107609 205.73249931 -215.625 201.3125 C-215.58590979 199.14578532 -215.63789233 196.97666553 -215.75 194.8125 C-216.7601594 151.51141985 -191.51696571 105.77397323 -163.625 74.3125 C-162.84125 73.41789062 -162.0575 72.52328125 -161.25 71.6015625 C-153.02396518 62.3187107 -144.42045715 53.93537499 -134.625 46.3125 C-134.09197266 45.89242676 -133.55894531 45.47235352 -133.00976562 45.03955078 C-95.18764559 15.42100905 -47.87003548 -0.22432519 0 0 Z M-58.625 12.3125 C-59.46272949 12.5492041 -60.30045898 12.7859082 -61.16357422 13.02978516 C-91.06886133 21.70088754 -118.49308564 37.14350132 -141.3515625 58.2265625 C-143.4639424 60.1647255 -145.62498072 62.02273271 -147.8125 63.875 C-151.11214789 66.75229296 -153.97511853 69.83679583 -156.796875 73.1796875 C-158.04247848 74.63289156 -159.32599058 76.05424585 -160.640625 77.4453125 C-189.81226667 108.40083154 -206.62335062 150.68137478 -212.1875 192.3828125 C-212.60066382 195.14953451 -213.2837393 196.89823075 -214.625 199.3125 C-214.625 199.9725 -214.625 200.6325 -214.625 201.3125 C-213.965 201.3125 -213.305 201.3125 -212.625 201.3125 C-212.70878906 202.30765625 -212.79257813 203.3028125 -212.87890625 204.328125 C-215.38052255 237.13594636 -209.84897082 270.16799722 -196.625 300.3125 C-196.05120605 301.63435303 -196.05120605 301.63435303 -195.46582031 302.98291016 C-179.7553705 338.70592272 -154.69101618 369.92893986 -122.625 392.3125 C-122.05571777 392.71581543 -121.48643555 393.11913086 -120.89990234 393.53466797 C-105.63087897 404.24346439 -88.22152004 413.16297931 -70.625 419.3125 C-69.92020508 419.56193359 -69.21541016 419.81136719 -68.48925781 420.06835938 C-13.59105994 439.26021966 45.01299031 433.15791291 96.94580078 408.21508789 C111.85825687 400.79321507 125.93567801 391.41341393 138.375 380.3125 C139.84453125 379.00539063 139.84453125 379.00539063 141.34375 377.671875 C180.20749182 342.72401479 205.75667742 296.46366759 212.375 244.3125 C212.4692627 243.59151123 212.56352539 242.87052246 212.66064453 242.12768555 C213.56807248 234.31390299 213.6184041 226.48149881 213.625 218.625 C213.62567474 217.89873413 213.62634949 217.17246826 213.62704468 216.42419434 C213.54420169 159.95159829 190.97841444 108.43874376 152.01806641 68.02294922 C150.54323039 66.48762959 149.0878873 64.93653326 147.63671875 63.37890625 C111.61785619 25.72033826 58.08374615 5.82135379 6.6953125 4.08984375 C-15.45675982 3.6182107 -37.31534647 6.2304984 -58.625 12.3125 Z " fill="#7A787D" transform="translate(222.625,2.6875)"/>
<path d="M0 0 C3.27709517 2.49283308 5.935349 4.92256855 8.4375 8.1875 C12.19703359 13.00084225 16.0470892 17.72925404 19.9375 22.4375 C21.16151904 23.92182494 22.38547835 25.40619914 23.609375 26.890625 C25.57762837 29.27645257 27.54642963 31.66182471 29.515625 34.046875 C30.59070313 35.35398437 30.59070313 35.35398437 31.6875 36.6875 C32.35346191 37.47350586 33.01942383 38.25951172 33.70556641 39.06933594 C36 42 36 42 38.04736328 45.41210938 C42.31813711 52.28908324 46.31366491 56.50128027 54.33703613 58.48124695 C59.26635435 59.43968625 64.21160944 60.14577352 69.1875 60.8125 C71.34398393 61.14532786 73.49950187 61.48446968 75.65405273 61.82958984 C79.00524869 62.36396536 82.35660198 62.89218027 85.71235657 63.3972168 C93.72179605 64.60279352 101.66955699 66.02189049 109.6171875 67.58203125 C110.71132462 67.79581924 111.80546173 68.00960724 112.93275452 68.22987366 C117.18228002 69.06267129 121.4309536 69.89952871 125.67782593 70.74575806 C128.59691623 71.32381288 131.5186437 71.88616824 134.44140625 72.4453125 C135.29455414 72.61871658 136.14770203 72.79212067 137.02670288 72.97077942 C137.8307254 73.12238022 138.63474792 73.27398102 139.46313477 73.43017578 C140.15029068 73.56513458 140.83744659 73.70009338 141.54542542 73.83914185 C147.65645844 74.23962244 153.8127699 72.7193258 159.7578125 71.43701172 C160.48740173 71.28229904 161.21699097 71.12758636 161.96868896 70.96818542 C169.53069769 69.35840608 177.0832242 67.70396823 184.63476562 66.04589844 C188.20884752 65.26263284 191.78551957 64.49342492 195.36523438 63.73632812 C199.71074374 62.81715251 204.05024073 61.87342309 208.38665771 60.9122963 C210.03050107 60.55218769 211.67622449 60.2005449 213.3237915 59.85787582 C222.46155986 57.94993542 229.59234427 56.21921223 236 49 C237.3922468 47.63948764 238.7904099 46.2850103 240.19360352 44.93579102 C241.67471777 43.46118304 243.15304503 41.98377171 244.62890625 40.50390625 C245.8189048 39.31534279 245.8189048 39.31534279 247.03294373 38.10276794 C248.69889081 36.43749717 250.36359256 34.77097971 252.02709961 33.10327148 C254.55536134 30.56965378 257.08891661 28.04141833 259.62304688 25.51367188 C261.2503207 23.88573717 262.87728425 22.25749225 264.50390625 20.62890625 C265.25201065 19.88282608 266.00011505 19.13674591 266.77088928 18.36805725 C270.85165688 14.26928444 274.76529372 10.08292075 278.52940369 5.69078064 C280.26279474 3.69785844 282.09492929 1.82886788 284 0 C287.40062014 1.40715316 288.89229698 3.02868228 291 6 C290.28251587 6.70962891 290.28251587 6.70962891 289.55053711 7.43359375 C287.3434466 9.61964406 285.14046367 11.80979129 282.9375 14 C282.18533203 14.74378906 281.43316406 15.48757813 280.65820312 16.25390625 C272.04639938 24.7744106 272.04639938 24.7744106 264.76538086 34.41259766 C247.39831898 60.97870827 225.01145414 68.2353434 195.29443359 74.46224976 C193.3007392 74.87204805 191.30676067 75.28046643 189.3125 75.6875 C188.3284317 75.89105228 187.3443634 76.09460457 186.33047485 76.3043251 C179.64677803 77.68087113 172.95077562 78.97123484 166.23828125 80.19921875 C165.36328287 80.36350246 164.48828449 80.52778618 163.58677101 80.69704819 C152.81496569 82.68162007 143.84075436 83.24942915 133 81 C131.45576562 80.7228493 129.91048852 80.45146963 128.36442566 80.18470764 C116.81259271 78.18561931 105.2915562 76.00696387 93.76635742 73.8605957 C89.53286878 73.0733392 85.29755759 72.29723962 81.06030273 71.53051758 C75.91209835 70.59887189 70.76776674 69.64814543 65.62562752 68.68360329 C63.67445617 68.32090676 61.72202605 67.96491373 59.76836967 67.61585045 C57.04419086 67.12768835 54.32568966 66.61510016 51.60717773 66.09643555 C50.80558228 65.95859146 50.00398682 65.82074738 49.17810059 65.6787262 C44.02828636 64.66094273 41.46037042 63.16025021 38 59 C37.13761719 58.01644531 36.27523437 57.03289062 35.38671875 56.01953125 C34.48425606 54.95281869 33.58460718 53.88372047 32.6875 52.8125 C32.20385986 52.23790039 31.72021973 51.66330078 31.22192383 51.07128906 C27.8465988 47.04709993 24.54908373 42.96665792 21.28515625 38.8515625 C18.26451121 35.08221056 15.19615594 31.35323856 12.125 27.625 C11.52437744 26.8942627 10.92375488 26.16352539 10.30493164 25.41064453 C7.52200319 22.03107851 4.72657523 18.66568815 1.875 15.34375 C1.40690918 14.79509277 0.93881836 14.24643555 0.45654297 13.68115234 C-0.79147199 12.22261781 -2.04779057 10.77119996 -3.3046875 9.3203125 C-5 7 -5 7 -5 4 C-2.5 1.8125 -2.5 1.8125 0 0 Z " fill="#716E74" transform="translate(80,279)"/>
<path d="M0 0 C4.79919033 3.86021831 9.21324422 9.70595379 10 16 C10.57610508 23.3453398 8.83618045 29.21949818 4.8125 35.3125 C-0.85866558 40.73161378 -7.63373018 43.40091645 -15.4609375 43.2734375 C-21.65883195 42.60597194 -27.17284697 40.3630034 -31.4375 35.75 C-35.64667951 30.14571 -37.61851404 24.32646052 -37.3515625 17.30078125 C-36.33278304 10.6334357 -33.21981923 5.24869007 -28 1 C-18.42135466 -5.36419003 -10.16010226 -5.28740015 0 0 Z " fill="#706F71" transform="translate(309,201)"/>
<path d="M0 0 C7.30995679 3.90704587 10.29619539 9.41983616 12.8125 16.96875 C13.50945404 24.91402602 11.50604239 31.52700139 6.5625 37.84375 C0.58366991 42.46375507 -5.49602459 45.30884925 -13.1875 44.96875 C-20.10020847 43.57247445 -26.03285779 40.72190394 -30.4375 35.09375 C-34.25667755 28.2737901 -35.4534892 21.99480294 -33.53515625 14.37890625 C-30.84653839 6.70538318 -26.82002023 3.02489353 -19.875 -0.90625 C-13.07235615 -2.98163287 -6.5597159 -2.85665047 0 0 Z " fill="#706F70" transform="translate(306.1875,107.03125)"/>
<path d="M0 0 C5.31745268 3.17695266 9.31102579 7.87205159 12.0625 13.375 C13.66430573 22.27392075 12.83924102 28.92040152 7.625 36.5 C3.44874428 41.10434571 -0.93505796 44.13913415 -7.2421875 44.80078125 C-15.86429098 44.83437386 -22.30199846 43.35215152 -28.79296875 37.41796875 C-33.19123719 32.08574701 -34.74963017 25.6226128 -34.4375 18.8125 C-33.46965483 12.02790538 -30.45857222 7.14373086 -25.375 2.625 C-18.11505926 -2.51745803 -8.28699758 -3.6650909 0 0 Z " fill="#706F71" transform="translate(233.375,155.5)"/>
<path d="M0 0 C5.32057686 3.59754307 8.28535794 8.35241563 10.1953125 14.484375 C11.3143965 22.47783217 9.94832107 28.91302417 5.1953125 35.484375 C-0.06390039 40.90057932 -5.76711827 43.35561924 -13.25 43.546875 C-21.1375968 43.16093754 -26.00547851 40.1591747 -31.6171875 34.796875 C-35.63396138 28.7143317 -37.71622302 22.07858812 -36.5 14.78125 C-34.28257204 7.45626326 -30.3926979 2.08122424 -23.734375 -1.67578125 C-15.59141949 -5.21978011 -7.6263653 -4.25546402 0 0 Z " fill="#706F71" transform="translate(162.8046875,108.515625)"/>
<path d="M0 0 C5.94400952 6.313859 8.55448216 12.40858151 8.37890625 21.08203125 C7.58468836 27.19832781 4.74770176 32.75210934 0.1875 36.9375 C-6.19819955 41.06942324 -12.34109939 43.17029042 -20 42 C-27.41005912 39.75159707 -32.48409094 36.03582573 -36.25 29.1875 C-39.42578775 22.25261654 -39.55768722 16.61615983 -37.14453125 9.46484375 C-34.21073713 3.14667279 -29.56982484 -1.57202125 -23 -4 C-15.51209483 -6.49596839 -6.25214877 -4.69581989 0 0 Z " fill="#706F71" transform="translate(165,202)"/>
<path d="M0 0 C6.55321033 3.85482961 10.89366931 7.35633272 13.1875 14.875 C14.8148197 21.68940125 14.10775315 27.49682977 11.1875 33.875 C7.99610622 38.74896243 4.08743778 42.67436413 -1.6015625 44.42578125 C-8.47797006 45.8229312 -15.8407827 45.89723231 -21.99609375 42.2734375 C-27.17657375 38.28502494 -31.63012393 33.44375593 -32.8125 26.875 C-33.40338618 20.39713673 -33.03255456 14.63245756 -29.8125 8.875 C-21.8300923 -0.61759294 -11.84859268 -3.49630604 0 0 Z " fill="#706F71" transform="translate(377.8125,155.125)"/>
<path d="M0 0 C4.56613335 3.52800712 7.39203514 8.27766793 9.19921875 13.69921875 C10.04611261 23.07058524 8.8916062 29.18630076 2.94921875 36.44921875 C-3.31874326 41.5775513 -8.57239749 43.46791607 -16.76953125 43.13671875 C-22.82983942 42.2620351 -27.68576374 40.15884196 -31.71875 35.46875 C-36.66904025 28.26084519 -37.41952293 22.36160221 -36.80078125 13.69921875 C-35.43829462 7.84159906 -31.89140751 2.74905916 -26.8984375 -0.5625 C-18.11474009 -5.08936033 -8.5846449 -4.82454279 0 0 Z " fill="#706F71" transform="translate(90.80078125,157.30078125)"/>
<path d="M0 0 C2.33265074 2.13980499 3.76482226 4.1547814 5.17651367 6.98071289 C5.57670212 7.77486099 5.97689056 8.56900909 6.38920593 9.38722229 C6.81119766 10.2404155 7.23318939 11.0936087 7.66796875 11.97265625 C8.10764481 12.85150986 8.54732086 13.73036346 9.00032043 14.635849 C9.92684177 16.49122952 10.85041398 18.34808526 11.77124023 20.20629883 C13.18561494 23.05869836 14.61061479 25.9055988 16.03710938 28.75195312 C16.93553095 30.55437106 17.83333868 32.35709514 18.73046875 34.16015625 C19.15853317 35.01537369 19.5865976 35.87059113 20.02763367 36.75172424 C20.41836563 37.54272018 20.8090976 38.33371613 21.21166992 39.14868164 C21.55791916 39.84578751 21.9041684 40.54289337 22.26091003 41.26112366 C23 43 23 43 23 45 C8.15 45 -6.7 45 -22 45 C-16.73208094 33.87883755 -11.47192299 22.79620101 -5.9375 11.8125 C-5.35806641 10.65814453 -4.77863281 9.50378906 -4.18164062 8.31445312 C-2.78966432 5.54200444 -1.39580385 2.77052305 0 0 Z " fill="#706F71" transform="translate(222,235)"/>
<path d="M0 0 C1.93238525 0.07855225 1.93238525 0.07855225 3.90380859 0.15869141 C4.58905609 0.18371735 5.27430359 0.20874329 5.98031616 0.23452759 C8.17145919 0.316777 10.3617072 0.41334439 12.55224609 0.51025391 C14.0365844 0.56848863 15.52095955 0.62579202 17.00537109 0.68212891 C20.64648583 0.82236148 24.28693229 0.97544141 27.92724609 1.13525391 C27.92724609 2.12525391 27.92724609 3.11525391 27.92724609 4.13525391 C23.54900693 4.1846354 19.17091463 4.22096431 14.79248047 4.24511719 C13.3025429 4.25518433 11.81262512 4.26883908 10.32275391 4.28613281 C8.18305581 4.31035043 6.04361856 4.32172954 3.90380859 4.33056641 C2.61555176 4.34104004 1.32729492 4.35151367 0 4.36230469 C-3.07275391 4.13525391 -3.07275391 4.13525391 -5.07275391 2.13525391 C-3.07275391 0.13525391 -3.07275391 0.13525391 0 0 Z " fill="#726E74" transform="translate(206.07275390625,432.86474609375)"/>
<path d="M0 0 C8.69740199 0.04739729 17.14667485 1.04392777 25.7421875 2.265625 C23.7621875 3.255625 23.7621875 3.255625 21.7421875 4.265625 C22.0721875 4.925625 22.4021875 5.585625 22.7421875 6.265625 C16.1421875 5.935625 9.5421875 5.605625 2.7421875 5.265625 C2.4121875 4.605625 2.0821875 3.945625 1.7421875 3.265625 C-1.28715741 2.60790072 -1.28715741 2.60790072 -4.2578125 2.265625 C-2.2578125 0.265625 -2.2578125 0.265625 0 0 Z " fill="#706E75" transform="translate(232.2578125,2.734375)"/>
<path d="M0 0 C0.66 0.33 1.32 0.66 2 1 C0.38283637 3.63853013 -0.37531929 4.83982546 -3.4375 5.625 C-4.283125 5.74875 -5.12875 5.8725 -6 6 C-8.20072961 6.72510734 -8.20072961 6.72510734 -10 8 C-10.25136719 8.61746094 -10.50273438 9.23492187 -10.76171875 9.87109375 C-12.48724755 12.8376969 -14.59771181 13.70115488 -17.625 15.25 C-18.62789062 15.77078125 -19.63078125 16.2915625 -20.6640625 16.828125 C-21.43492188 17.21484375 -22.20578125 17.6015625 -23 18 C-23 17.34 -23 16.68 -23 16 C-24.32 15.67 -25.64 15.34 -27 15 C-23.62654897 13.05979375 -20.25096798 11.12332291 -16.875 9.1875 C-15.92367187 8.64029297 -14.97234375 8.09308594 -13.9921875 7.52929688 C-3.40116089 1.46152121 -3.40116089 1.46152121 0 0 Z " fill="#7D7A80" transform="translate(130,23)"/>
<path d="M0 0 C0.66 1.32 1.32 2.64 2 4 C-1.47569509 7.47569509 -12.13743089 6.07191075 -16.76171875 6.09765625 C-19.07033298 6.09111627 -21.37893801 6.07935082 -23.6875 6.0625 C-24.87794922 6.05798828 -26.06839844 6.05347656 -27.29492188 6.04882812 C-30.19666936 6.03717452 -33.09830626 6.02081559 -36 6 C-36 5.67 -36 5.34 -36 5 C-34.97060303 4.97812622 -34.97060303 4.97812622 -33.92041016 4.95581055 C-30.82136099 4.88149849 -27.72340945 4.78478418 -24.625 4.6875 C-23.54476562 4.66494141 -22.46453125 4.64238281 -21.3515625 4.61914062 C-19.8046875 4.5659668 -19.8046875 4.5659668 -18.2265625 4.51171875 C-16.79691162 4.47244263 -16.79691162 4.47244263 -15.33837891 4.43237305 C-14.18088135 4.21834839 -14.18088135 4.21834839 -13 4 C-12.34 3.01 -11.68 2.02 -11 1 C-8.3984375 0.48828125 -8.3984375 0.48828125 -5.375 0.3125 C-3.87066406 0.21388672 -3.87066406 0.21388672 -2.3359375 0.11328125 C-1.17964844 0.05720703 -1.17964844 0.05720703 0 0 Z " fill="#878689" transform="translate(246,432)"/>
<path d="M0 0 C0.33 0 0.66 0 1 0 C2.92748746 12.57057042 2.92748746 12.57057042 -0.44921875 18.1171875 C-5.76987149 24.57702281 -11.59371259 28.63071193 -19.87109375 30.0390625 C-22 30 -22 30 -25 28 C-24.20335937 27.82984375 -23.40671875 27.6596875 -22.5859375 27.484375 C-14.93364181 25.73421492 -9.04198772 24.13594713 -4.25 17.5625 C-1.07053163 12.1747835 -0.62535354 6.1228645 0 0 Z " fill="#AF9FC1" transform="translate(173,216)"/>
<path d="M0 0 C0.66 0.99 1.32 1.98 2 3 C0.54350941 6.48324734 -1.30384882 8.34778456 -4.1875 10.75 C-8.55898327 14.51315388 -12.32806432 18.56061796 -16 23 C-16.33 22.01 -16.66 21.02 -17 20 C-16.34 20 -15.68 20 -15 20 C-14.34 18.68 -13.68 17.36 -13 16 C-12.34 16 -11.68 16 -11 16 C-10.979375 15.319375 -10.95875 14.63875 -10.9375 13.9375 C-9.71907925 10.11978166 -7.59788887 8.35245504 -4.72265625 5.6484375 C-2.90519441 3.909279 -1.41412084 2.07958947 0 0 Z " fill="#736E77" transform="translate(81,55)"/>
<path d="M0 0 C1 4 1 4 1 7 C1.33 7.66 1.66 8.32 2 9 C6.94790177 9.0493651 11.89566083 9.08570269 16.84375 9.10986328 C18.52769466 9.11993317 20.21162179 9.13358988 21.89550781 9.15087891 C24.31319501 9.17508426 26.73065143 9.18647296 29.1484375 9.1953125 C29.9036972 9.20563507 30.65895691 9.21595764 31.43710327 9.22659302 C33.2929398 9.22699318 35.1481928 9.12222716 37 9 C37.66 8.34 38.32 7.68 39 7 C39.495 8.98 39.495 8.98 40 11 C25.15 11 10.3 11 -5 11 C-3.35 7.37 -1.7 3.74 0 0 Z " fill="#746C7B" transform="translate(205,269)"/>
<path d="M0 0 C1.3096875 0.02835937 2.619375 0.05671875 3.96875 0.0859375 C5.2784375 0.09882812 6.588125 0.11171875 7.9375 0.125 C11.09330357 0.42522025 12.89584002 0.68260266 15.46875 2.4609375 C15.79875 3.1209375 16.12875 3.7809375 16.46875 4.4609375 C8.54875 4.4609375 0.62875 4.4609375 -7.53125 4.4609375 C-3.53125 0.4609375 -3.53125 0.4609375 0 0 Z " fill="#737079" transform="translate(218.53125,2.5390625)"/>
<path d="M0 0 C4.42168788 0.17686752 7.24922369 0.77393718 10.5 3.75 C12.66666778 6.12301709 13.02002198 6.53949435 12.875 9.875 C12.441875 10.926875 12.441875 10.926875 12 12 C8.87142986 10.6118265 6.71810826 8.98898122 4.3125 6.5625 C3.71050781 5.96566406 3.10851562 5.36882812 2.48828125 4.75390625 C1 3 1 3 0 0 Z " fill="#7E7B7F" transform="translate(62,366)"/>
<path d="M0 0 C-3.77560456 3.25061573 -7.73089425 5.57990776 -12.1875 7.75 C-13.13012695 8.22373047 -13.13012695 8.22373047 -14.09179688 8.70703125 C-18.73232887 11 -18.73232887 11 -21 11 C-21 10.01 -21 9.02 -21 8 C-19.35 7.67 -17.7 7.34 -16 7 C-16 6.34 -16 5.68 -16 5 C-12.86501708 3.14223235 -10.62528568 2.79859524 -7 3 C-7 2.34 -7 1.68 -7 1 C-7.66 0.67 -8.32 0.34 -9 0 C-5.93109813 -1.53445094 -3.29905734 -0.54984289 0 0 Z " fill="#817F81" transform="translate(332,408)"/>
<path d="M0 0 C0.99 0 1.98 0 3 0 C3.103125 1.11375 3.20625 2.2275 3.3125 3.375 C3.539375 4.57125 3.76625 5.7675 4 7 C4.99 7.66 5.98 8.32 7 9 C7.08798769 11.33167378 7.07905064 13.66800612 7 16 C7.20625 16.886875 7.4125 17.77375 7.625 18.6875 C8.08393798 21.51761755 7.3529476 22.54713698 6 25 C4.99379031 21.39753737 3.99610413 17.79276877 3 14.1875 C2.71382812 13.16333984 2.42765625 12.13917969 2.1328125 11.08398438 C1.86210937 10.10107422 1.59140625 9.11816406 1.3125 8.10546875 C1.06113281 7.19949951 0.80976563 6.29353027 0.55078125 5.36010742 C0 3 0 3 0 0 Z " fill="#818083" transform="translate(10,265)"/>
<path d="M0 0 C0.99 0.33 1.98 0.66 3 1 C-3.27 7.27 -9.54 13.54 -16 20 C-16.66 19.34 -17.32 18.68 -18 18 C-16.71937515 16.2925002 -15.38232443 14.62626404 -14 13 C-13.34 13 -12.68 13 -12 13 C-11.67 12.34 -11.34 11.68 -11 11 C-10.04206067 9.81584177 -9.0599415 8.65108163 -8.0625 7.5 C-7.53785156 6.8915625 -7.01320313 6.283125 -6.47265625 5.65625 C-4.42009164 3.34779537 -2.59650687 1.73100458 0 0 Z " fill="#B0A0C2" transform="translate(337,304)"/>
<path d="M0 0 C1 2 1 2 0.19555664 4.43017578 C-0.22862549 5.4251709 -0.65280762 6.42016602 -1.08984375 7.4453125 C-1.54423828 8.52167969 -1.99863281 9.59804688 -2.46679688 10.70703125 C-2.95212891 11.83496094 -3.43746094 12.96289062 -3.9375 14.125 C-4.41896484 15.26066406 -4.90042969 16.39632813 -5.39648438 17.56640625 C-6.59075486 20.3806278 -7.79219124 23.19156835 -9 26 C-9.66 25.67 -10.32 25.34 -11 25 C-9.50890775 19.553812 -8.05252623 14.79682694 -5 10 C-5 9.01 -5 8.02 -5 7 C-4.67 6.34 -4.34 5.68 -4 5 C-3.34 5 -2.68 5 -2 5 C-2 4.34 -2 3.68 -2 3 C-2.66 2.67 -3.32 2.34 -4 2 C-2.68 1.34 -1.36 0.68 0 0 Z " fill="#AD9EC2" transform="translate(424,288)"/>
<path d="M0 0 C0.99 0 1.98 0 3 0 C3 0.66 3 1.32 3 2 C4.19625 1.896875 5.3925 1.79375 6.625 1.6875 C10.11559679 1.65644487 11.83724368 2.2385682 14.5 4.5 C15.7375 5.7375 15.7375 5.7375 17 7 C16.01 7.66 15.02 8.32 14 9 C11.30680224 8.15819174 8.88095733 7.25214747 6.3125 6.125 C5.61060547 5.82980469 4.90871094 5.53460937 4.18554688 5.23046875 C2.45181161 4.49923347 0.72518427 3.75118724 -1 3 C-0.67 2.01 -0.34 1.02 0 0 Z " fill="#78747D" transform="translate(298,18)"/>
<path d="M0 0 C4.875 1.75 4.875 1.75 6 4 C6.13357453 7.67329964 6.1671568 10.49852959 5 14 C5.66 14 6.32 14 7 14 C6.67 16.31 6.34 18.62 6 21 C5.67 21 5.34 21 5 21 C4.16267257 17.87605609 3.33082018 14.75068026 2.5 11.625 C2.26152344 10.73554688 2.02304687 9.84609375 1.77734375 8.9296875 C1.55175781 8.07890625 1.32617188 7.228125 1.09375 6.3515625 C0.88427734 5.56604004 0.67480469 4.78051758 0.45898438 3.97119141 C0 2 0 2 0 0 Z " fill="#737078" transform="translate(426,155)"/>
<path d="M0 0 C2.8301913 3.38263104 4.5032781 7.09118459 6.1875 11.125 C6.46013672 11.75792969 6.73277344 12.39085937 7.01367188 13.04296875 C9 17.7324953 9 17.7324953 9 20 C8.34 20 7.68 20 7 20 C4.78252188 17.69723426 4.03239994 16.47519908 3.8125 13.25 C3.874375 12.5075 3.93625 11.765 4 11 C2.68 10.67 1.36 10.34 0 10 C-1.125 3.375 -1.125 3.375 0 0 Z " fill="#858486" transform="translate(416,121)"/>
<path d="M0 0 C0 0.66 0 1.32 0 2 C-2.97 2.66 -5.94 3.32 -9 4 C-9 4.66 -9 5.32 -9 6 C-10.65 6.33 -12.3 6.66 -14 7 C-14.33 8.32 -14.66 9.64 -15 11 C-17.31 11 -19.62 11 -22 11 C-22.33 10.34 -22.66 9.68 -23 9 C-19.92274141 7.48729764 -16.83728731 5.99211419 -13.75 4.5 C-12.87730469 4.07074219 -12.00460937 3.64148438 -11.10546875 3.19921875 C-10.26113281 2.79316406 -9.41679687 2.38710938 -8.546875 1.96875 C-7.77182617 1.59169922 -6.99677734 1.21464844 -6.19824219 0.82617188 C-4 0 -4 0 0 0 Z " fill="#736E79" transform="translate(325,409)"/>
<path d="M0 0 C0.33 1.32 0.66 2.64 1 4 C-0.0828125 4.57814453 -0.0828125 4.57814453 -1.1875 5.16796875 C-4.34736859 7.22627204 -6.50287334 9.49152723 -9 12.3125 C-9.86367188 13.28445313 -10.72734375 14.25640625 -11.6171875 15.2578125 C-14.12161278 18.13995438 -16.59535424 21.03427023 -19 24 C-19.66 23.34 -20.32 22.68 -21 22 C-18.43881364 19.26959802 -15.87581564 16.54090298 -13.3125 13.8125 C-12.59126953 13.04357422 -11.87003906 12.27464844 -11.12695312 11.48242188 C-7.47343152 7.59534182 -3.80210453 3.74211077 0 0 Z " fill="#AD9FC0" transform="translate(367,288)"/>
<path d="M0 0 C0.66 0.33 1.32 0.66 2 1 C1.43410156 1.53109375 0.86820313 2.0621875 0.28515625 2.609375 C-0.44832031 3.31578125 -1.18179688 4.0221875 -1.9375 4.75 C-2.66839844 5.44609375 -3.39929688 6.1421875 -4.15234375 6.859375 C-6.05130391 9.05943878 -6.45639286 10.22413378 -7 13 C-8.9375 15.25 -8.9375 15.25 -11 17 C-11.66 17 -12.32 17 -13 17 C-13 17.99 -13 18.98 -13 20 C-13.66 20 -14.32 20 -15 20 C-15.26648711 17.05753815 -15.36087241 15.5096363 -13.62304688 13.05541992 C-12.68041992 12.15206909 -12.68041992 12.15206909 -11.71875 11.23046875 C-11.04199219 10.56982422 -10.36523438 9.90917969 -9.66796875 9.22851562 C-8.95253906 8.55498047 -8.23710938 7.88144531 -7.5 7.1875 C-6.78457031 6.49462891 -6.06914063 5.80175781 -5.33203125 5.08789062 C-3.56539579 3.38014301 -1.78817513 1.68513312 0 0 Z " fill="#8A8989" transform="translate(77,58)"/>
<path d="M0 0 C1.32 0.33 2.64 0.66 4 1 C0.96086531 4.36947542 -2.06857693 6.30422175 -6.125 8.3125 C-7.70667969 9.11107422 -7.70667969 9.11107422 -9.3203125 9.92578125 C-10.20460938 10.28027344 -11.08890625 10.63476562 -12 11 C-12.66 10.67 -13.32 10.34 -14 10 C-11.64454464 6.07424106 -9.37779333 5.11773447 -5 4 C-4.34 4 -3.68 4 -3 4 C-1.36323743 2.0399719 -1.36323743 2.0399719 0 0 Z " fill="#726D77" transform="translate(132,23)"/>
<path d="M0 0 C0.99 0.33 1.98 0.66 3 1 C1.30533619 3.67578497 0.38672442 4.85267641 -2.625 6 C-3.40875 6.33 -4.1925 6.66 -5 7 C-5.88693303 9.04105639 -5.88693303 9.04105639 -6 11 C-8.375 11.625 -8.375 11.625 -11 12 C-11.66 11.34 -12.32 10.68 -13 10 C-10.90516399 8.29962669 -8.80057275 6.61493394 -6.6875 4.9375 C-6.09259766 4.45216797 -5.49769531 3.96683594 -4.88476562 3.46679688 C-3.3162821 2.23128751 -1.66163416 1.10706635 0 0 Z " fill="#746E78" transform="translate(356,386)"/>
<path d="M0 0 C0.66 0.33 1.32 0.66 2 1 C2.63912692 3.86434404 3.16944544 6.66879881 3.625 9.5625 C3.7590625 10.36880859 3.893125 11.17511719 4.03125 12.00585938 C4.36207299 14.0026124 4.68205038 16.0011567 5 18 C4.01 17.67 3.02 17.34 2 17 C0.875 12.25 0.875 12.25 2 10 C1.01 10 0.02 10 -1 10 C-0.67 6.7 -0.34 3.4 0 0 Z " fill="#726E77" transform="translate(11,255)"/>
<path d="M0 0 C0.33 0 0.66 0 1 0 C1.13605482 8.39004715 0.75475351 16.64380043 0 25 C-0.33 25 -0.66 25 -1 25 C-1 21.04 -1 17.08 -1 13 C-1.66 13 -2.32 13 -3 13 C-2.67 11.02 -2.34 9.04 -2 7 C-1.67 7 -1.34 7 -1 7 C-0.67 4.69 -0.34 2.38 0 0 Z M-5 5 C-4.67 5 -4.34 5 -4 5 C-3.67 7.97 -3.34 10.94 -3 14 C-3.99 14.495 -3.99 14.495 -5 15 C-5 11.7 -5 8.4 -5 5 Z " fill="#A299AF" transform="translate(11,191)"/>
<path d="M0 0 C3.78239671 0.65690619 7.21841526 1.720131 10.8125 3.0625 C11.78832031 3.42472656 12.76414062 3.78695313 13.76953125 4.16015625 C14.50558594 4.43730469 15.24164063 4.71445312 16 5 C16 5.33 16 5.66 16 6 C14.02 6 12.04 6 10 6 C10 5.34 10 4.68 10 4 C9.01 4 8.02 4 7 4 C7 4.66 7 5.32 7 6 C4.69 5.67 2.38 5.34 0 5 C0 3.35 0 1.7 0 0 Z " fill="#848185" transform="translate(291,14)"/>
<path d="M0 0 C-0.99 0.66 -1.98 1.32 -3 2 C-2.67 2.66 -2.34 3.32 -2 4 C-7.445 5.485 -7.445 5.485 -13 7 C-12 4 -12 4 -11 3 C-12.32 2.67 -13.64 2.34 -15 2 C-13.25364835 1.46706165 -11.50272348 0.94909337 -9.75 0.4375 C-8.77546875 0.14746094 -7.8009375 -0.14257812 -6.796875 -0.44140625 C-4.03756068 -0.99249836 -2.6087176 -0.93789609 0 0 Z " fill="#827F86" transform="translate(173,10)"/>
<path d="M0 0 C1.32 0 2.64 0 4 0 C4.80450651 4.42478581 5.14080668 8.7512354 5.25 13.25 C5.27578125 14.26578125 5.3015625 15.2815625 5.328125 16.328125 C5 19 5 19 3.484375 20.859375 C2.99453125 21.23578125 2.5046875 21.6121875 2 22 C2.03480469 20.49759766 2.03480469 20.49759766 2.0703125 18.96484375 C2.08908789 17.62240336 2.10728618 16.27995482 2.125 14.9375 C2.15980469 12.97103516 2.15980469 12.97103516 2.1953125 10.96484375 C1.99417522 6.88175701 1.27165462 3.85000947 0 0 Z " fill="#AE9EC2" transform="translate(97,164)"/>
<path d="M0 0 C4.9723422 1.49170266 9.41845739 3.60457417 14 6 C13.01 6.66 12.02 7.32 11 8 C11 7.34 11 6.68 11 6 C9.906875 6.226875 8.81375 6.45375 7.6875 6.6875 C4 7 4 7 2.125 5.8125 C0.91964664 3.87054181 0.3869869 2.24452405 0 0 Z " fill="#88868A" transform="translate(312,22)"/>
<path d="M0 0 C1.29886417 0.37153556 2.58908793 0.77335394 3.875 1.1875 C4.95394531 1.51814453 4.95394531 1.51814453 6.0546875 1.85546875 C8 3 8 3 10 8 C6.37 7.01 2.74 6.02 -1 5 C-0.67 3.35 -0.34 1.7 0 0 Z " fill="#77727D" transform="translate(151,421)"/>
<path d="M0 0 C0 0.99 0 1.98 0 3 C-7.44638025 7.61280192 -13.29942593 8.6727248 -22 8 C-22 7.67 -22 7.34 -22 7 C-21.39671875 6.96261719 -20.7934375 6.92523438 -20.171875 6.88671875 C-14.00632228 6.43746659 -14.00632228 6.43746659 -9 3 C-9 3.66 -9 4.32 -9 5 C-5.85808576 3.46395304 -2.91403262 1.94268841 0 0 Z " fill="#746C7D" transform="translate(93,192)"/>
<path d="M0 0 C1.04114833 3.37364344 1.04037514 6.35935388 0.9375 9.875 C0.88843859 14.33413669 1.16014834 17.86033377 3 22 C1.68 22 0.36 22 -1 22 C-0.979375 21.236875 -0.95875 20.47375 -0.9375 19.6875 C-0.87057159 16.89814214 -0.87057159 16.89814214 -2 14 C-2.06937062 11.77181559 -2.08457084 9.54165476 -2.0625 7.3125 C-2.05347656 6.13300781 -2.04445312 4.95351562 -2.03515625 3.73828125 C-2.02355469 2.83464844 -2.01195312 1.93101562 -2 1 C-1.34 0.67 -0.68 0.34 0 0 Z " fill="#AC9EC0" transform="translate(54,167)"/>
<path d="M0 0 C0.66 0 1.32 0 2 0 C0.7851652 6.19565748 -0.91646441 8.2932553 -6 12 C-6.66 12.66 -7.32 13.32 -8 14 C-10 14.75 -10 14.75 -12 15 C-12.66 14.34 -13.32 13.68 -14 13 C-13.46890625 12.76925781 -12.9378125 12.53851563 -12.390625 12.30078125 C-6.25589256 9.46850514 -2.79012103 6.27777232 0 0 Z " fill="#AEA0C1" transform="translate(171,137)"/>
<path d="M0 0 C0.66 0.66 1.32 1.32 2 2 C1.625 3.9375 1.625 3.9375 1 6 C1 6.99 1 7.98 1 9 C-0.32 9.33 -1.64 9.66 -3 10 C-3.061875 10.61875 -3.12375 11.2375 -3.1875 11.875 C-3.455625 12.57625 -3.72375 13.2775 -4 14 C-6.55078125 15.1328125 -6.55078125 15.1328125 -9 16 C-8.43410156 15.01257813 -7.86820312 14.02515625 -7.28515625 13.0078125 C-6.54424241 11.71355794 -5.80335855 10.41928621 -5.0625 9.125 C-4.68931641 8.47402344 -4.31613281 7.82304687 -3.93164062 7.15234375 C-1.89866922 3.61253166 -1.89866922 3.61253166 0 0 Z " fill="#746F7B" transform="translate(409,323)"/>
<path d="M0 0 C0.66 0 1.32 0 2 0 C1.72738477 6.65181157 0.93841591 12.45905623 -3 18 C-3.99 18.66 -4.98 19.32 -6 20 C-5.09464727 15.57729989 -3.03611051 11.78176617 -1.05859375 7.75390625 C0.02382002 4.9380328 0.21121796 2.98413069 0 0 Z " fill="#746B7D" transform="translate(317,218)"/>
<path d="M0 0 C0.66 0.33 1.32 0.66 2 1 C1.505 1.598125 1.01 2.19625 0.5 2.8125 C-1.28276418 4.97029994 -1.28276418 4.97029994 -1 8 C-3.5 9.6875 -3.5 9.6875 -6 11 C-6.66 10.34 -7.32 9.68 -8 9 C-5.89851796 5.01824456 -3.63094642 2.64960955 0 0 Z " fill="#7E7C81" transform="translate(89,48)"/>
<path d="M0 0 C0.99 0.33 1.98 0.66 3 1 C1.23519919 2.8187336 -0.53630765 4.62994991 -2.3125 6.4375 C-3.06176758 7.2119043 -3.06176758 7.2119043 -3.82617188 8.00195312 C-6.19869635 10.40590176 -7.74970379 11.91656793 -11 13 C-11.66 12.34 -12.32 11.68 -13 11 C-12.071875 10.5875 -11.14375 10.175 -10.1875 9.75 C-7.07312814 8.04014879 -5.95780365 6.8388153 -4 4 C-3.34 4 -2.68 4 -2 4 C-1.34 2.68 -0.68 1.36 0 0 Z " fill="#AE9FC1" transform="translate(373,368)"/>
<path d="M0 0 C0.99 0.33 1.98 0.66 3 1 C4.125 3.875 4.125 3.875 5 7 C5.33 7.99 5.66 8.98 6 10 C6.66 10 7.32 10 8 10 C7.67 12.31 7.34 14.62 7 17 C4.42033404 14.42033404 3.66390156 11.90692108 2.375 8.5 C1.92898438 7.3346875 1.48296875 6.169375 1.0234375 4.96875 C0 2 0 2 0 0 Z " fill="#736C7A" transform="translate(417,131)"/>
<path d="M0 0 C0 0.66 0 1.32 0 2 C1.65 1.34 3.3 0.68 5 0 C5.66 0.66 6.32 1.32 7 2 C5.4176994 2.33820166 3.83410625 2.67035939 2.25 3 C0.92742187 3.2784375 0.92742187 3.2784375 -0.421875 3.5625 C-3 4 -3 4 -7 4 C-7 2.68 -7 1.36 -7 0 C-3.86650268 -1.04449911 -3.01031744 -0.93423645 0 0 Z " fill="#7F7E80" transform="translate(264,431)"/>
<path d="M0 0 C0.66 0.66 1.32 1.32 2 2 C0.66666667 3.33333333 -0.66666667 4.66666667 -2 6 C-2.825 6.845625 -3.65 7.69125 -4.5 8.5625 C-6.58196448 10.59241536 -8.62816886 12.33093365 -11 14 C-11 11 -11 11 -8.59375 8.30078125 C-7.5700032 7.29697757 -6.5383946 6.30114351 -5.5 5.3125 C-4.97535156 4.80138672 -4.45070313 4.29027344 -3.91015625 3.76367188 C-2.61339096 2.50227292 -1.30753883 1.25022788 0 0 Z " fill="#AFA0C1" transform="translate(342,314)"/>
<path d="M0 0 C1.98 0.495 1.98 0.495 4 1 C3.00956295 5.83628305 2.04301154 10.47618873 0 15 C-1.47006623 10.58980132 -0.43537323 7.30611969 1 3 C0.34 2.67 -0.32 2.34 -1 2 C-0.67 1.34 -0.34 0.68 0 0 Z " fill="#8F8E8E" transform="translate(427,282)"/>
<path d="M0 0 C1.43957405 2.8791481 0.29037478 4.78996894 -0.51953125 7.7578125 C-1.26099601 11.21798138 -1.12600996 14.47172107 -1 18 C-1.66 18.33 -2.32 18.66 -3 19 C-4.08875615 11.55526202 -4.32433818 6.48650727 0 0 Z " fill="#AE9FC1" transform="translate(128,117)"/>
<path d="M0 0 C0.33 0.66 0.66 1.32 1 2 C-0.36328125 4.4609375 -0.36328125 4.4609375 -2.3125 7.375 C-4.40284113 10.5211118 -6.40068749 13.57406153 -8 17 C-7.49835842 9.72619715 -5.56612198 5.00950979 0 0 Z " fill="#746D7D" transform="translate(135,202)"/>
<path d="M0 0 C0.33 0.99 0.66 1.98 1 3 C-4.94 8.445 -4.94 8.445 -11 14 C-11.66 13.67 -12.32 13.34 -13 13 C-8.71 8.71 -4.42 4.42 0 0 Z " fill="#AE9FC0" transform="translate(329,327)"/>
<path d="M0 0 C3.08089673 2.77280706 4.68775452 5.06326356 6 9 C4.35 9.33 2.7 9.66 1 10 C0.63720544 8.71073008 0.28503302 7.41846728 -0.0625 6.125 C-0.35833984 5.04605469 -0.35833984 5.04605469 -0.66015625 3.9453125 C-1 2 -1 2 0 0 Z " fill="#77727A" transform="translate(26,306)"/>
<path d="M0 0 C0.33 1.32 0.66 2.64 1 4 C1.99 3.67 2.98 3.34 4 3 C3.25 9.75 3.25 9.75 1 12 C0.01 12 -0.98 12 -2 12 C-1.85831863 10.56208484 -1.71148957 9.1246763 -1.5625 7.6875 C-1.48128906 6.88699219 -1.40007813 6.08648437 -1.31640625 5.26171875 C-1 3 -1 3 0 0 Z " fill="#848288" transform="translate(12,165)"/>
<path d="M0 0 C1.9609375 0.234375 1.9609375 0.234375 4.375 0.75 C5.56222656 0.98976563 5.56222656 0.98976563 6.7734375 1.234375 C9.25068366 2.0862 10.39449578 2.94909783 12 5 C12 5.66 12 6.32 12 7 C2.40546697 4.10933941 2.40546697 4.10933941 -1 1 C-0.67 0.67 -0.34 0.34 0 0 Z " fill="#838184" transform="translate(132,416)"/>
<path d="M0 0 C3.23150461 0.96071759 4.75851173 1.69411485 6.875 4.375 C8 7 8 7 7.6875 9.3125 C7.460625 9.869375 7.23375 10.42625 7 11 C5.0625 10.4375 5.0625 10.4375 3 9 C2.25 5.375 2.25 5.375 2 2 C1.34 2 0.68 2 0 2 C0 1.34 0 0.68 0 0 Z " fill="#736F76" transform="translate(34,325)"/>
<path d="M0 0 C0.63019694 8.19256018 0.63019694 8.19256018 -2 11.5625 C-2.99 12.2740625 -2.99 12.2740625 -4 13 C-4.08086147 11.20906809 -4.13912702 9.41710372 -4.1875 7.625 C-4.22230469 6.62726563 -4.25710937 5.62953125 -4.29296875 4.6015625 C-4.14794922 3.31378906 -4.14794922 3.31378906 -4 2 C-1 0 -1 0 0 0 Z " fill="#736F75" transform="translate(11,191)"/>
<path d="M0 0 C3.13220429 2.5627126 4.04560617 5.10900977 5 9 C5.15041492 11.69291219 5.09314515 14.29879075 5 17 C4.34 16.67 3.68 16.34 3 16 C2.76733859 14.07223406 2.53993829 12.14353353 2.3515625 10.2109375 C1.81335322 6.82619914 0.47621569 4.08079796 -1 1 C-0.67 0.67 -0.34 0.34 0 0 Z " fill="#746C7E" transform="translate(314,115)"/>
<path d="M0 0 C5.94 1.485 5.94 1.485 12 3 C10 5 10 5 8.0546875 5.1953125 C6.03645833 5.13020833 4.01822917 5.06510417 2 5 C1.34 3.35 0.68 1.7 0 0 Z " fill="#736D7A" transform="translate(159,424)"/>
<path d="M0 0 C1.32 0.66 2.64 1.32 4 2 C0.7 4.64 -2.6 7.28 -6 10 C-6.66 9.67 -7.32 9.34 -8 9 C-7.67 8.01 -7.34 7.02 -7 6 C-6.21625 5.938125 -5.4325 5.87625 -4.625 5.8125 C-3.75875 5.544375 -2.8925 5.27625 -2 5 C-0.62533375 2.52363988 -0.62533375 2.52363988 0 0 Z " fill="#7E7D7E" transform="translate(358,386)"/>
<path d="M0 0 C4 0 4 0 6 1 C6.75 3.875 6.75 3.875 7 7 C6.01 8.485 6.01 8.485 5 10 C4.16121545 8.71186658 3.32913217 7.41936744 2.5 6.125 C2.0359375 5.40570313 1.571875 4.68640625 1.09375 3.9453125 C0 2 0 2 0 0 Z " fill="#807E80" transform="translate(38,334)"/>
<path d="M0 0 C-0.99 0.495 -0.99 0.495 -2 1 C-1.67 1.66 -1.34 2.32 -1 3 C-1.928125 2.979375 -2.85625 2.95875 -3.8125 2.9375 C-7.02286011 2.84230396 -7.02286011 2.84230396 -10 4 C-10 3.34 -10 2.68 -10 2 C-10.99 1.67 -11.98 1.34 -13 1 C-11.58622218 0.63447197 -10.16879424 0.28304505 -8.75 -0.0625 C-7.96109375 -0.25972656 -7.1721875 -0.45695312 -6.359375 -0.66015625 C-3.89605178 -1.01497267 -2.34395868 -0.76877544 0 0 Z " fill="#706D76" transform="translate(274,429)"/>
<path d="M0 0 C0.66 0.33 1.32 0.66 2 1 C0.43241627 3.55763662 -0.35597998 4.82594053 -3.3125 5.625 C-4.199375 5.74875 -5.08625 5.8725 -6 6 C-8.00744615 6.64389782 -10.00945124 7.30562253 -12 8 C-12 7.34 -12 6.68 -12 6 C-10.04669132 4.96958487 -8.08718472 3.9509107 -6.125 2.9375 C-5.03445312 2.36902344 -3.94390625 1.80054687 -2.8203125 1.21484375 C-1.42425781 0.61349609 -1.42425781 0.61349609 0 0 Z " fill="#88888A" transform="translate(130,23)"/>
<path d="M0 0 C1.89492187 0.01353516 1.89492187 0.01353516 3.828125 0.02734375 C4.79234375 0.03894531 5.7565625 0.05054688 6.75 0.0625 C7.08 0.7225 7.41 1.3825 7.75 2.0625 C1.15 2.3925 -5.45 2.7225 -12.25 3.0625 C-11.25 1.0625 -11.25 1.0625 -9.640625 0.44140625 C-6.40648557 -0.07119428 -3.27272949 -0.03030305 0 0 Z " fill="#736C7C" transform="translate(203.25,5.9375)"/>
<path d="M0 0 C1.49997444 2.94952958 2.80023567 5.91489173 4 9 C3.34 9 2.68 9 2 9 C1.67 10.32 1.34 11.64 1 13 C0.34 12.34 -0.32 11.68 -1 11 C-0.9765625 8.3984375 -0.9765625 8.3984375 -0.625 5.375 C-0.51414062 4.37210938 -0.40328125 3.36921875 -0.2890625 2.3359375 C-0.19367187 1.56507813 -0.09828125 0.79421875 0 0 Z " fill="#8A8889" transform="translate(8,182)"/>
<path d="M0 0 C0.33 0 0.66 0 1 0 C1.25060425 1.89311883 1.47460633 3.78977039 1.6875 5.6875 C1.81511719 6.74324219 1.94273437 7.79898438 2.07421875 8.88671875 C1.98881298 12.46926591 1.070838 14.13063834 -1 17 C-1.99 16.67 -2.98 16.34 -4 16 C-3.525625 15.030625 -3.05125 14.06125 -2.5625 13.0625 C-0.71147001 8.80163851 -0.30248407 4.59984394 0 0 Z " fill="#AEA0C3" transform="translate(246,173)"/>
<path d="M0 0 C1.25541557 3.76624671 0.37061958 5.37188934 -1 9 C-2.32 8.67 -3.64 8.34 -5 8 C-4.75 5.125 -4.75 5.125 -4 2 C-1.9375 0.625 -1.9375 0.625 0 0 Z " fill="#76717A" transform="translate(22,144)"/>
<path d="M0 0 C0.928125 0.20625 1.85625 0.4125 2.8125 0.625 C2.8125 1.615 2.8125 2.605 2.8125 3.625 C3.4725 3.955 4.1325 4.285 4.8125 4.625 C1.8125 5.625 1.8125 5.625 -0.23046875 4.84765625 C-0.93816406 4.46480469 -1.64585937 4.08195312 -2.375 3.6875 C-3.09042969 3.30722656 -3.80585938 2.92695313 -4.54296875 2.53515625 C-5.08566406 2.23480469 -5.62835938 1.93445313 -6.1875 1.625 C-3.1875 -0.375 -3.1875 -0.375 0 0 Z " fill="#747077" transform="translate(324.1875,28.375)"/>
<path d="M0 0 C3.96 0.33 7.92 0.66 12 1 C7.5 4.375 7.5 4.375 3 4 C2.67 3.01 2.34 2.02 2 1 C1.34 0.67 0.68 0.34 0 0 Z " fill="#726E76" transform="translate(180,430)"/>
<path d="M0 0 C-4.96284034 2.37113483 -9.45949887 4.43174347 -15 5 C-15 4.34 -15 3.68 -15 3 C-12.87790224 2.30359327 -10.75221473 1.61811643 -8.625 0.9375 C-6.84996094 0.36322266 -6.84996094 0.36322266 -5.0390625 -0.22265625 C-2 -1 -2 -1 0 0 Z " fill="#AD9FBF" transform="translate(300,419)"/>
<path d="M0 0 C3.28788824 3.11016455 5.83735988 6.01618925 8 10 C5.6875 9.875 5.6875 9.875 3 9 C0.97798569 5.79266696 0 3.80845564 0 0 Z " fill="#AF9FC2" transform="translate(105,322)"/>
<path d="M0 0 C0.99 0.33 1.98 0.66 3 1 C-2.0940919 8.68490153 -2.0940919 8.68490153 -5.875 10 C-6.57625 10 -7.2775 10 -8 10 C-7.59007812 9.52949219 -7.18015625 9.05898437 -6.7578125 8.57421875 C-6.21898437 7.95160156 -5.68015625 7.32898438 -5.125 6.6875 C-4.59132813 6.07261719 -4.05765625 5.45773438 -3.5078125 4.82421875 C-1.8359553 2.86501788 -1.8359553 2.86501788 0 0 Z " fill="#AE9FC2" transform="translate(316,231)"/>
<path d="M0 0 C-2.83636599 1.89091066 -4.20913229 2.3902577 -7.4375 3 C-10.61413201 3.60200133 -13.15772791 4.44613827 -16 6 C-16.33 5.34 -16.66 4.68 -17 4 C-10.8389516 0.77945197 -6.9670251 -0.13398125 0 0 Z " fill="#756C7E" transform="translate(299,197)"/>
<path d="M0 0 C0.66 0.33 1.32 0.66 2 1 C0.68 3.31 -0.64 5.62 -2 8 C-2.66 8 -3.32 8 -4 8 C-4.33 8.99 -4.66 9.98 -5 11 C-5.33 10.01 -5.66 9.02 -6 8 C-4.22557591 5.00183515 -2.46459429 2.46459429 0 0 Z " fill="#746C7C" transform="translate(280,110)"/>
<path d="M0 0 C1.65 0 3.3 0 5 0 C5 1.65 5 3.3 5 5 C-0.75 4.125 -0.75 4.125 -3 3 C-2.67 2.34 -2.34 1.68 -2 1 C-1.34 1.33 -0.68 1.66 0 2 C0 1.34 0 0.68 0 0 Z " fill="#78747A" transform="translate(286,13)"/>
<path d="M0 0 C1.99954746 -0.04254356 4.00041636 -0.04080783 6 0 C6.33 0.33 6.66 0.66 7 1 C8.32594105 1.36162029 9.65938457 1.69728039 11 2 C11 2.66 11 3.32 11 4 C5.62694301 4.35233161 5.62694301 4.35233161 3 4 C1 2 1 2 0 0 Z " fill="#716E74" transform="translate(252,6)"/>
<path d="M0 0 C0.928125 0.20625 1.85625 0.4125 2.8125 0.625 C0.58424356 2.85325644 -0.84511628 3.31739369 -3.8125 4.25 C-4.62976563 4.51039063 -5.44703125 4.77078125 -6.2890625 5.0390625 C-6.91554688 5.23242188 -7.54203125 5.42578125 -8.1875 5.625 C-6.37307853 1.43787353 -4.89236161 -0.57557195 0 0 Z " fill="#828081" transform="translate(305.1875,419.375)"/>
<path d="M0 0 C4.38585031 0.50605965 6.78252098 3.20219215 10 6 C10.66 6.33 11.32 6.66 12 7 C12 7.66 12 8.32 12 9 C8.36679834 8.41083216 6.45533138 6.94481799 3.75 4.5 C3.04359375 3.8709375 2.3371875 3.241875 1.609375 2.59375 C1.07828125 2.0678125 0.5471875 1.541875 0 1 C0 0.67 0 0.34 0 0 Z " fill="#AEA0C1" transform="translate(80,378)"/>
<path d="M0 0 C0.99 0 1.98 0 3 0 C3.144375 1.0725 3.28875 2.145 3.4375 3.25 C3.83749442 5.91662949 4.27591924 8.41399729 5 11 C4.01 11 3.02 11 2 11 C1.34 7.37 0.68 3.74 0 0 Z " fill="#878886" transform="translate(10,265)"/>
<path d="M0 0 C0.66 0 1.32 0 2 0 C2.3540919 6.51791392 2.03901852 11.17521449 -1 17 C-1.625 15.25 -1.625 15.25 -2 13 C-1.6803125 12.3915625 -1.360625 11.783125 -1.03125 11.15625 C0.16484628 8.65532141 0.20594307 7.00206426 0.125 4.25 C0.10695312 3.45078125 0.08890625 2.6515625 0.0703125 1.828125 C0.04710937 1.22484375 0.02390625 0.6215625 0 0 Z " fill="#736B7B" transform="translate(244,172)"/>
<path d="M0 0 C3.3 1.65 6.6 3.3 10 5 C9.67 5.66 9.34 6.32 9 7 C2.47692308 6.50769231 2.47692308 6.50769231 0.0625 3.9375 C-0.4634375 2.9784375 -0.4634375 2.9784375 -1 2 C-0.67 1.34 -0.34 0.68 0 0 Z " fill="#AE9FC2" transform="translate(278,145)"/>
<path d="M0 0 C6.7685324 -0.10152799 13.30324864 -0.03026944 20 1 C20 1.33 20 1.66 20 2 C18.02 2 16.04 2 14 2 C14 2.66 14 3.32 14 4 C13.44828125 3.68289062 12.8965625 3.36578125 12.328125 3.0390625 C9.71522011 1.87290025 7.59420998 1.59954289 4.75 1.375 C3.85796875 1.30023438 2.9659375 1.22546875 2.046875 1.1484375 C1.03367188 1.07496094 1.03367188 1.07496094 0 1 C0 0.67 0 0.34 0 0 Z " fill="#9D9D9D" transform="translate(230,3)"/>
<path d="M0 0 C2.83833554 1.13533421 4.80962228 2.29083424 7.125 4.25 C2.93424525 4.44491883 -0.11579436 4.18330576 -3.875 2.25 C-4.205 1.59 -4.535 0.93 -4.875 0.25 C-2.875 -0.75 -2.875 -0.75 0 0 Z " fill="#726C78" transform="translate(133.875,413.75)"/>
<path d="M0 0 C0.99 0.66 1.98 1.32 3 2 C1.21475351 3.19713017 -0.5784028 4.38247279 -2.375 5.5625 C-3.87160156 6.55443359 -3.87160156 6.55443359 -5.3984375 7.56640625 C-6.25695312 8.03949219 -7.11546875 8.51257813 -8 9 C-8.66 8.67 -9.32 8.34 -10 8 C-8.5998884 5.1997768 -6.73427449 4.43223902 -4 3 C-3.01 3 -2.02 3 -1 3 C-0.67 2.01 -0.34 1.02 0 0 Z " fill="#AE9FC1" transform="translate(346,391)"/>
<path d="M0 0 C2.31 0.33 4.62 0.66 7 1 C6.67 2.98 6.34 4.96 6 7 C1.125 3.375 1.125 3.375 0 0 Z " fill="#888687" transform="translate(62,366)"/>
<path d="M0 0 C1.32 0.66 2.64 1.32 4 2 C-0.455 4.97 -0.455 4.97 -5 8 C-5.33 7.34 -5.66 6.68 -6 6 C-4.6875 4 -4.6875 4 -3 2 C-2.01 2 -1.02 2 0 2 C0 1.34 0 0.68 0 0 Z " fill="#AE9FC2" transform="translate(281,106)"/>
<path d="M0 0 C5.61 0 11.22 0 17 0 C17 0.33 17 0.66 17 1 C15.55367187 1.19916016 15.55367187 1.19916016 14.078125 1.40234375 C12.18320313 1.66724609 12.18320313 1.66724609 10.25 1.9375 C8.99703125 2.11152344 7.7440625 2.28554687 6.453125 2.46484375 C3.90017407 2.86049338 1.4813709 3.30446422 -1 4 C-0.67 2.68 -0.34 1.36 0 0 Z " fill="#AE9FC2" transform="translate(138,104)"/>
<path d="M0 0 C-1.98 0.99 -1.98 0.99 -4 2 C-3.67 2.66 -3.34 3.32 -3 4 C-5.64 4 -8.28 4 -11 4 C-11.33 3.34 -11.66 2.68 -12 2 C-7.8794254 0.00214565 -4.54805635 -0.17835515 0 0 Z " fill="#827E89" transform="translate(258,5)"/>
<path d="M0 0 C0.66 0 1.32 0 2 0 C2.66 1.65 3.32 3.3 4 5 C4.66 5 5.32 5 6 5 C6 5.66 6 6.32 6 7 C6.66 7.33 7.32 7.66 8 8 C7.01 8.99 6.02 9.98 5 11 C3.35 7.37 1.7 3.74 0 0 Z " fill="#AE9EC1" transform="translate(29,309)"/>
<path d="M0 0 C0.66 0 1.32 0 2 0 C1.39009109 3.55780196 0.4216319 6.6828589 -1 10 C-1.66 9.67 -2.32 9.34 -3 9 C-2.25 2.25 -2.25 2.25 0 0 Z " fill="#888886" transform="translate(424,297)"/>
<path d="M0 0 C0.66 0 1.32 0 2 0 C0.50829734 4.9723422 -1.60457417 9.41845739 -4 14 C-5.06528748 11.26980214 -5.07998186 10.20701188 -4.00390625 7.421875 C-3.52824219 6.54015625 -3.05257812 5.6584375 -2.5625 4.75 C-2.08941406 3.85796875 -1.61632812 2.9659375 -1.12890625 2.046875 C-0.75636719 1.37140625 -0.38382813 0.6959375 0 0 Z " fill="#AD9FBF" transform="translate(207,261)"/>
<path d="M0 0 C0.33 0.66 0.66 1.32 1 2 C-0.21484375 4.8203125 -0.21484375 4.8203125 -1.9375 8.125 C-2.50339844 9.22070312 -3.06929687 10.31640625 -3.65234375 11.4453125 C-4.09707031 12.28835938 -4.54179687 13.13140625 -5 14 C-5.33 14 -5.66 14 -6 14 C-6.36539443 9.71422781 -5.48423598 7.65507938 -3 4.1875 C-2.1646875 3.00220703 -2.1646875 3.00220703 -1.3125 1.79296875 C-0.879375 1.20128906 -0.44625 0.60960937 0 0 Z " fill="#AD9FC0" transform="translate(216,245)"/>
<path d="M0 0 C2.94366879 4.41550318 5 7.61090125 5 13 C4.01 13.495 4.01 13.495 3 14 C2.87625 13.236875 2.7525 12.47375 2.625 11.6875 C2.11897208 8.79732864 2.11897208 8.79732864 0 6 C-0.125 2.8125 -0.125 2.8125 0 0 Z " fill="#AE9FBF" transform="translate(272,133)"/>
<path d="M0 0 C2.31 1.98 4.62 3.96 7 6 C6.01 7.485 6.01 7.485 5 9 C1.96938234 6.97958823 1.27760233 6.24314437 0 3 C0 2.01 0 1.02 0 0 Z " fill="#7F7F7E" transform="translate(381,72)"/>
<path d="M0 0 C0.99 0 1.98 0 3 0 C3 0.66 3 1.32 3 2 C4.98 2 6.96 2 9 2 C8.34 3.32 7.68 4.64 7 6 C4.36 5.01 1.72 4.02 -1 3 C-0.67 2.01 -0.34 1.02 0 0 Z " fill="#736D76" transform="translate(298,18)"/>
<path d="M0 0 C0 0.66 0 1.32 0 2 C-0.99 2.66 -1.98 3.32 -3 4 C-3 4.66 -3 5.32 -3 6 C-3.99 6 -4.98 6 -6 6 C-6 5.34 -6 4.68 -6 4 C-7.32 3.67 -8.64 3.34 -10 3 C-8.70990357 2.49596232 -7.41786211 1.99690074 -6.125 1.5 C-5.04605469 1.08234375 -5.04605469 1.08234375 -3.9453125 0.65625 C-2 0 -2 0 0 0 Z " fill="#848383" transform="translate(149,16)"/>
<path d="M0 0 C-2.3125 2.5 -2.3125 2.5 -5 5 C-5.99 5 -6.98 5 -8 5 C-8 4.34 -8 3.68 -8 3 C-8.99 2.67 -9.98 2.34 -11 2 C-9.73392393 1.46770674 -8.46189588 0.94955456 -7.1875 0.4375 C-6.47980469 0.14746094 -5.77210938 -0.14257812 -5.04296875 -0.44140625 C-3 -1 -3 -1 0 0 Z " fill="#746E79" transform="translate(302,420)"/>
<path d="M0 0 C5.0302076 0.52537724 10.01885239 1.10594786 15 2 C15 2.33 15 2.66 15 3 C13.06318839 3.08107583 11.1254066 3.13922475 9.1875 3.1875 C8.10855469 3.22230469 7.02960938 3.25710938 5.91796875 3.29296875 C3 3 3 3 1.11328125 1.48828125 C0.56220703 0.75158203 0.56220703 0.75158203 0 0 Z " fill="#AC9FC0" transform="translate(177,353)"/>
<path d="M0 0 C3.63 1.32 7.26 2.64 11 4 C10.67 4.66 10.34 5.32 10 6 C7.9375 6.625 7.9375 6.625 6 7 C5.67 6.34 5.34 5.68 5 5 C4.154375 4.505 3.30875 4.01 2.4375 3.5 C1.633125 3.005 0.82875 2.51 0 2 C0 1.34 0 0.68 0 0 Z " fill="#AEA0C0" transform="translate(280,239)"/>
<path d="M0 0 C1.65 0 3.3 0 5 0 C5.33 0.66 5.66 1.32 6 2 C4.72942818 2.47985967 3.45853152 2.9588593 2.1875 3.4375 C1.12595703 3.83775391 1.12595703 3.83775391 0.04296875 4.24609375 C-1.62672396 4.86225186 -3.31157704 5.43719235 -5 6 C-5 5.01 -5 4.02 -5 3 C-3.35 2.34 -1.7 1.68 0 1 C0 0.67 0 0.34 0 0 Z " fill="#AD9FC1" transform="translate(286,196)"/>
<path d="M0 0 C1.74216797 0.02707031 1.74216797 0.02707031 3.51953125 0.0546875 C4.39996094 0.07789063 5.28039062 0.10109375 6.1875 0.125 C6.1875 0.455 6.1875 0.785 6.1875 1.125 C5.10082031 1.19847656 5.10082031 1.19847656 3.9921875 1.2734375 C-1.22708867 1.67706152 -5.91063658 2.13775807 -10.8125 4.125 C-11.1425 3.465 -11.4725 2.805 -11.8125 2.125 C-7.73526266 0.17468308 -4.49557578 -0.09081971 0 0 Z " fill="#756C7E" transform="translate(222.8125,153.875)"/>
<path d="M0 0 C-1.8125 2 -1.8125 2 -4 4 C-4.99 4 -5.98 4 -7 4 C-7 3.34 -7 2.68 -7 2 C-8.32 1.67 -9.64 1.34 -11 1 C-7.26562152 0.12132271 -3.83225427 -0.08912219 0 0 Z " fill="#868683" transform="translate(188,6)"/>
<path d="M0 0 C0.66 0 1.32 0 2 0 C4.1875 2.25 4.1875 2.25 6 5 C5.67 6.32 5.34 7.64 5 9 C3.02 6.36 1.04 3.72 -1 1 C-0.67 0.67 -0.34 0.34 0 0 Z " fill="#AE9FC0" transform="translate(82,278)"/>
<path d="M0 0 C4.455 0.99 4.455 0.99 9 2 C9 2.99 9 3.98 9 5 C4.68607774 4.5206753 2.83430453 3.2542015 0 0 Z " fill="#746D7C" transform="translate(353,194)"/>
<path d="M0 0 C1.25127906 3.54667178 0.72285053 5.72253438 -0.4375 9.25 C-0.72496094 10.14203125 -1.01242187 11.0340625 -1.30859375 11.953125 C-1.53675781 12.62859375 -1.76492188 13.3040625 -2 14 C-2.33 13.34 -2.66 12.68 -3 12 C-3.66 11.67 -4.32 11.34 -5 11 C-4.34 10.67 -3.68 10.34 -3 10 C-2.349461 7.91388442 -2.349461 7.91388442 -1.9375 5.5 C-1.09393346 1.09393346 -1.09393346 1.09393346 0 0 Z " fill="#746C7D" transform="translate(391,175)"/>
<path d="M0 0 C2.75348442 2.03518414 3.01423025 3.08111243 3.625 6.5625 C3.810625 8.2640625 3.810625 8.2640625 4 10 C4.33 10.66 4.66 11.32 5 12 C4.01 11.67 3.02 11.34 2 11 C0.37676246 7.24092359 -0.23994929 4.07913787 0 0 Z " fill="#746C7D" transform="translate(345,177)"/>
<path d="M0 0 C1.9375 0.8125 1.9375 0.8125 4 2 C4.33 2.99 4.66 3.98 5 5 C5.66 5 6.32 5 7 5 C7 7.31 7 9.62 7 12 C5.31843245 9.47764868 3.83531994 6.96413358 2.375 4.3125 C1.92898437 3.50425781 1.48296875 2.69601563 1.0234375 1.86328125 C0.68570313 1.24839844 0.34796875 0.63351563 0 0 Z " fill="#AE9FBF" transform="translate(166,111)"/>
<path d="M0 0 C0.90105469 0.00902344 1.80210937 0.01804687 2.73046875 0.02734375 C3.41753906 0.03894531 4.10460937 0.05054687 4.8125 0.0625 C4.4825 0.7225 4.1525 1.3825 3.8125 2.0625 C1.59765625 2.546875 1.59765625 2.546875 -1.125 2.8125 C-2.02089844 2.91046875 -2.91679687 3.0084375 -3.83984375 3.109375 C-6.1875 3.0625 -6.1875 3.0625 -8.1875 1.0625 C-5.17259443 0.05753148 -3.14568308 -0.04085303 0 0 Z " fill="#746E7C" transform="translate(295.1875,104.9375)"/>
<path d="M0 0 C2.52588702 2.36292656 3.88820837 3.66462511 5 7 C3.35 7.33 1.7 7.66 0 8 C-1.09658936 4.71023192 -0.79953138 3.28696233 0 0 Z " fill="#828184" transform="translate(399,93)"/>
<path d="M0 0 C0.12375 0.639375 0.2475 1.27875 0.375 1.9375 C0.684375 2.9584375 0.684375 2.9584375 1 4 C1.66 4.33 2.32 4.66 3 5 C1.68 5.99 0.36 6.98 -1 8 C-1.33 7.34 -1.66 6.68 -2 6 C-2.99 6 -3.98 6 -5 6 C-3.35 4.02 -1.7 2.04 0 0 Z " fill="#807E81" transform="translate(61,74)"/>
<path d="M0 0 C0.66 0.66 1.32 1.32 2 2 C-0.64 4.31 -3.28 6.62 -6 9 C-6.66 8.67 -7.32 8.34 -8 8 C-7.50628906 7.59007812 -7.01257813 7.18015625 -6.50390625 6.7578125 C-5.86324219 6.21898437 -5.22257812 5.68015625 -4.5625 5.125 C-3.92441406 4.59132813 -3.28632813 4.05765625 -2.62890625 3.5078125 C-0.89194996 2.0777243 -0.89194996 2.0777243 0 0 Z " fill="#B0A1C0" transform="translate(314,327)"/>
<path d="M0 0 C1.98 0.99 1.98 0.99 4 2 C4.33 1.34 4.66 0.68 5 0 C5 0.99 5 1.98 5 3 C5.62599617 4.68236471 6.28752268 6.3523962 7 8 C6.01 8 5.02 8 4 8 C0 2.74285714 0 2.74285714 0 0 Z " fill="#AE9EC2" transform="translate(40,329)"/>
<path d="M0 0 C0.33 0.66 0.66 1.32 1 2 C1.66 2 2.32 2 3 2 C2.01 4.97 1.02 7.94 0 11 C-2 7 -2 7 -1.125 3.25 C-0.75375 2.1775 -0.3825 1.105 0 0 Z " fill="#878486" transform="translate(419,305)"/>
<path d="M0 0 C0.33 1.32 0.66 2.64 1 4 C-1.31 5.65 -3.62 7.3 -6 9 C-6 6 -6 6 -4.6875 4.39453125 C-4.130625 3.87246094 -3.57375 3.35039062 -3 2.8125 C-2.443125 2.28269531 -1.88625 1.75289063 -1.3125 1.20703125 C-0.6628125 0.60955078 -0.6628125 0.60955078 0 0 Z " fill="#746F7B" transform="translate(340,304)"/>
<path d="M0 0 C0.38897161 1.62171239 0.76078298 3.24754925 1.125 4.875 C1.33382813 5.77992188 1.54265625 6.68484375 1.7578125 7.6171875 C1.83773438 8.40351563 1.91765625 9.18984375 2 10 C1.34 10.66 0.68 11.32 0 12 C-0.47985967 10.72942818 -0.9588593 9.45853152 -1.4375 8.1875 C-1.83775391 7.12595703 -1.83775391 7.12595703 -2.24609375 6.04296875 C-2.86225186 4.37327604 -3.43719235 2.68842296 -4 1 C-1 0 -1 0 0 0 Z " fill="#AD9EC0" transform="translate(318,205)"/>
<path d="M0 0 C-0.33 2.64 -0.66 5.28 -1 8 C-2.5 6.75 -2.5 6.75 -4 5 C-4 3.68 -4 2.36 -4 1 C-2 0 -2 0 0 0 Z " fill="#726D77" transform="translate(13,181)"/>
<path d="M0 0 C0.66 1.32 1.32 2.64 2 4 C1.34 4 0.68 4 0 4 C-0.28875 4.969375 -0.5775 5.93875 -0.875 6.9375 C-2 10 -2 10 -4 11 C-3.39301257 6.87248551 -1.96189209 3.6678852 0 0 Z " fill="#AD9DC1" transform="translate(33,122)"/>
<path d="M0 0 C3.91402949 1.26941497 5.79072873 2.51167694 8 6 C7.01 6 6.02 6 5 6 C5 5.34 5 4.68 5 4 C4.34 4 3.68 4 3 4 C2.67 4.66 2.34 5.32 2 6 C1.34 4.02 0.68 2.04 0 0 Z " fill="#7F7F7E" transform="translate(360,53)"/>
<path d="M0 0 C1.65 0.33 3.3 0.66 5 1 C5.33 1.99 5.66 2.98 6 4 C3.03 3.67 0.06 3.34 -3 3 C-2.01 2.67 -1.02 2.34 0 2 C0 1.34 0 0.68 0 0 Z " fill="#828283" transform="translate(177,430)"/>
<path d="M0 0 C0.99 0 1.98 0 3 0 C3.66 1.65 4.32 3.3 5 5 C2.36 4.34 -0.28 3.68 -3 3 C-2.01 2.67 -1.02 2.34 0 2 C0 1.34 0 0.68 0 0 Z " fill="#8A888A" transform="translate(156,424)"/>
<path d="M0 0 C2.0625 1.75 2.0625 1.75 4 4 C3.75 6.25 3.75 6.25 3 8 C2.01 7.67 1.02 7.34 0 7 C0 4.69 0 2.38 0 0 Z " fill="#726C78" transform="translate(44,337)"/>
<path d="M0 0 C1.875 1.1875 1.875 1.1875 2.875 3.1875 C-0.755 2.8575 -4.385 2.5275 -8.125 2.1875 C-3.07827103 -1.17698598 -3.07827103 -1.17698598 0 0 Z " fill="#AD9DC2" transform="translate(168.125,339.8125)"/>
<path d="M0 0 C2.125 0.375 2.125 0.375 4 1 C1.03 3.475 1.03 3.475 -2 6 C-2 2 -2 2 0 0 Z " fill="#AE9EC0" transform="translate(348,292)"/>
<path d="M0 0 C0.66 0.33 1.32 0.66 2 1 C2 1.66 2 2.32 2 3 C1.34 3 0.68 3 0 3 C-0.12375 3.763125 -0.2475 4.52625 -0.375 5.3125 C-1 8 -1 8 -3 11 C-3.66 10.67 -4.32 10.34 -5 10 C-3.35 6.7 -1.7 3.4 0 0 Z " fill="#746D7D" transform="translate(222,235)"/>
<path d="M0 0 C0.66 0.33 1.32 0.66 2 1 C1.04270084 2.12588014 0.08412105 3.2506715 -0.875 4.375 C-1.40867188 5.00148437 -1.94234375 5.62796875 -2.4921875 6.2734375 C-3.61432007 7.55836651 -4.79371975 8.79371975 -6 10 C-5.58578031 5.16743695 -3.53586014 3.17320782 0 0 Z " fill="#ADA0C0" transform="translate(134,201)"/>
<path d="M0 0 C2.3828125 0.0234375 2.3828125 0.0234375 5.125 0.375 C6.03507813 0.48585937 6.94515625 0.59671875 7.8828125 0.7109375 C8.93082031 0.85402344 8.93082031 0.85402344 10 1 C9.34 1.66 8.68 2.32 8 3 C5.6171875 2.9765625 5.6171875 2.9765625 2.875 2.625 C1.96492187 2.51414063 1.05484375 2.40328125 0.1171875 2.2890625 C-0.58148438 2.19367188 -1.28015625 2.09828125 -2 2 C-1.34 1.34 -0.68 0.68 0 0 Z " fill="#756D7F" transform="translate(147,197)"/>
<path d="M0 0 C2 2 2 2 2.125 5.625 C2.08375 6.73875 2.0425 7.8525 2 9 C1.34 9 0.68 9 0 9 C-0.87890625 2.84765625 -0.87890625 2.84765625 -1 1 C-0.67 0.67 -0.34 0.34 0 0 Z " fill="#716F74" transform="translate(436,187)"/>
<path d="M0 0 C4.95 0.33 9.9 0.66 15 1 C15 1.33 15 1.66 15 2 C7.08 2.495 7.08 2.495 -1 3 C-0.67 2.01 -0.34 1.02 0 0 Z " fill="#AE9FC0" transform="translate(214,152)"/>
<path d="M0 0 C2.0625 0.4375 2.0625 0.4375 4 1 C3.67 2.32 3.34 3.64 3 5 C1.02 5.33 -0.96 5.66 -3 6 C-1.125 1.125 -1.125 1.125 0 0 Z " fill="#848085" transform="translate(46,93)"/>
<path d="M0 0 C2.31 0 4.62 0 7 0 C7.33 1.65 7.66 3.3 8 5 C4.62496331 3.8141763 2.35277269 2.72426311 0 0 Z " fill="#716B76" transform="translate(331,36)"/>
<path d="M0 0 C0 0.66 0 1.32 0 2 C-3.63 1.67 -7.26 1.34 -11 1 C-11 0.67 -11 0.34 -11 0 C-7.01803543 -1.05404945 -4.01804691 -0.84098656 0 0 Z " fill="#AC9EBE" transform="translate(191,429)"/>
<path d="M0 0 C2.97 0.33 5.94 0.66 9 1 C8.01 1.33 7.02 1.66 6 2 C6 2.66 6 3.32 6 4 C4.68 4 3.36 4 2 4 C2 3.34 2 2.68 2 2 C1.34 1.34 0.68 0.68 0 0 Z " fill="#726E77" transform="translate(171,428)"/>
<path d="M0 0 C2.475 0.99 2.475 0.99 5 2 C4.67 2.99 4.34 3.98 4 5 C2.68 4.67 1.36 4.34 0 4 C0 2.68 0 1.36 0 0 Z " fill="#727075" transform="translate(83,383)"/>
<path d="M0 0 C0.66 0.66 1.32 1.32 2 2 C1.01 3.98 0.02 5.96 -1 8 C-1.66 7.34 -2.32 6.68 -3 6 C-2.63318342 3.06546739 -2.13562754 2.13562754 0 0 Z " fill="#80807E" transform="translate(412,323)"/>
<path d="M0 0 C0.66 0.33 1.32 0.66 2 1 C1.67 1.66 1.34 2.32 1 3 C0.34 2.67 -0.32 2.34 -1 2 C-1.66 3.32 -2.32 4.64 -3 6 C-4.32 5.67 -5.64 5.34 -7 5 C-2.25 1.125 -2.25 1.125 0 0 Z " fill="#AD9EC3" transform="translate(93,194)"/>
<path d="M0 0 C0.99 0 1.98 0 3 0 C1.87548273 2.9719385 0.77706209 5.33440687 -1 8 C-2.2077558 4.37673261 -1.54311128 3.35853631 0 0 Z " fill="#6F6D73" transform="translate(14,164)"/>
<path d="M0 0 C2.0625 0.4375 2.0625 0.4375 4 1 C2.73760288 1.86658615 1.46472499 2.71792059 0.1875 3.5625 C-0.87404297 4.27599609 -0.87404297 4.27599609 -1.95703125 5.00390625 C-4 6 -4 6 -7 5 C-6.030625 4.360625 -5.06125 3.72125 -4.0625 3.0625 C-1.23963731 1.3034741 -1.23963731 1.3034741 0 0 Z " fill="#746C7F" transform="translate(309,144)"/>
<path d="M0 0 C0.66 0.33 1.32 0.66 2 1 C1.42647107 4.87132028 -0.48704352 7.08172796 -3 10 C-2.39009109 6.44219804 -1.4216319 3.3171411 0 0 Z " fill="#AD9EBF" transform="translate(25,140)"/>
<path d="M0 0 C1.39195915 4.17587745 -0.17676781 6.13474776 -2 10 C-2.99 9.67 -3.98 9.34 -5 9 C-3.35 6.03 -1.7 3.06 0 0 Z " fill="#AD9EC0" transform="translate(41,108)"/>
<path d="M0 0 C0.556875 0.226875 1.11375 0.45375 1.6875 0.6875 C-0.2925 2.0075 -2.2725 3.3275 -4.3125 4.6875 C-5.3025 4.0275 -6.2925 3.3675 -7.3125 2.6875 C-2.88173077 -0.38942308 -2.88173077 -0.38942308 0 0 Z " fill="#AEA0C2" transform="translate(122.3125,33.3125)"/>
<path d="M0 0 C2.97 0.495 2.97 0.495 6 1 C5.01 1.495 5.01 1.495 4 2 C4 2.66 4 3.32 4 4 C2.68 4.33 1.36 4.66 0 5 C-0.66 4.01 -1.32 3.02 -2 2 C-1.34 2 -0.68 2 0 2 C0 1.34 0 0.68 0 0 Z " fill="#858486" transform="translate(282,11)"/>
<path d="M0 0 C0.66 0 1.32 0 2 0 C2 0.66 2 1.32 2 2 C2.99 2.33 3.98 2.66 5 3 C5 3.99 5 4.98 5 6 C3.02 5.34 1.04 4.68 -1 4 C-0.67 2.68 -0.34 1.36 0 0 Z " fill="#7E7D7D" transform="translate(118,407)"/>
<path d="M0 0 C3.465 1.485 3.465 1.485 7 3 C6.01 3.99 5.02 4.98 4 6 C3.67 5.01 3.34 4.02 3 3 C0.98491642 2.26676204 0.98491642 2.26676204 -1 2 C-0.67 1.34 -0.34 0.68 0 0 Z " fill="#736D78" transform="translate(120,407)"/>
<path d="M0 0 C1.98 0.99 1.98 0.99 4 2 C4 3.65 4 5.3 4 7 C3.01 7.495 3.01 7.495 2 8 C0.74335022 5.09399739 0 3.20395416 0 0 Z " fill="#8C8A8A" transform="translate(17,290)"/>
<path d="M0 0 C0.66 0 1.32 0 2 0 C1.34 3.3 0.68 6.6 0 10 C-0.66 9.01 -1.32 8.02 -2 7 C-1.67 6.01 -1.34 5.02 -1 4 C-0.65772583 2.66893378 -0.32248257 1.33599921 0 0 Z " fill="#8D8D8C" transform="translate(432,272)"/>
<path d="M0 0 C0.33 0 0.66 0 1 0 C1.16702456 4.34263862 1.12999997 7.20960634 -1 11 C-1.22174933 9.54364629 -1.42698698 8.08477044 -1.625 6.625 C-1.74101562 5.81289063 -1.85703125 5.00078125 -1.9765625 4.1640625 C-1.98429688 3.44992188 -1.99203125 2.73578125 -2 2 C-1.34 1.34 -0.68 0.68 0 0 Z " fill="#8A8A89" transform="translate(10,252)"/>
<path d="M0 0 C0.66 0.33 1.32 0.66 2 1 C0.90931332 4.77545388 0.0916909 7.47043472 -3 10 C-3.33 9.34 -3.66 8.68 -4 8 C-3.22265625 6.0546875 -3.22265625 6.0546875 -2.0625 3.875 C-1.49208984 2.78832031 -1.49208984 2.78832031 -0.91015625 1.6796875 C-0.60980469 1.12539062 -0.30945313 0.57109375 0 0 Z " fill="#AE9FC1" transform="translate(390,184)"/>
<path d="M0 0 C0.66 0.66 1.32 1.32 2 2 C0.70700306 4.88437779 -0.65941363 6.87219421 -3 9 C-2.44271087 5.65626525 -1.64826111 2.96687001 0 0 Z " fill="#756D7C" transform="translate(58,162)"/>
<path d="M0 0 C0.66 0.33 1.32 0.66 2 1 C0.68 3.31 -0.64 5.62 -2 8 C-2.5534764 5.92446352 -3 4.15634036 -3 2 C-2.01 1.34 -1.02 0.68 0 0 Z " fill="#736E7D" transform="translate(316,135)"/>
<path d="M0 0 C0.66 0.99 1.32 1.98 2 3 C-0.625 7.875 -0.625 7.875 -4 9 C-2.80100302 5.9168649 -1.52299523 2.93720508 0 0 Z " fill="#8E8D8C" transform="translate(37,106)"/>
<path d="M0 0 C0.66 0.33 1.32 0.66 2 1 C2.625 3.5625 2.625 3.5625 3 6 C-0.16115776 4.63016497 -0.9927092 4.0109362 -3 1 C-2.01 0.67 -1.02 0.34 0 0 Z " fill="#746E76" transform="translate(359,52)"/>
<path d="M0 0 C1.1446875 0.495 1.1446875 0.495 2.3125 1 C4.99069135 2.17436686 4.99069135 2.17436686 8 2 C8 2.99 8 3.98 8 5 C4.5625 4.1875 4.5625 4.1875 1 3 C0.67 2.01 0.34 1.02 0 0 Z " fill="#736E76" transform="translate(344,43)"/>
<path d="M0 0 C-1.32 0.33 -2.64 0.66 -4 1 C-4 1.99 -4 2.98 -4 4 C-6.475 3.01 -6.475 3.01 -9 2 C-4 -1.33333333 -4 -1.33333333 0 0 Z " fill="#726D77" transform="translate(291,424)"/>
<path d="M0 0 C3 2 3 2 4 4 C1.03 3.67 -1.94 3.34 -5 3 C-3 1 -3 1 0 0 Z " fill="#AC9CC2" transform="translate(176,425)"/>
<path d="M0 0 C-2.62198774 2.15377564 -4.64404172 3.40072174 -8 4 C-8 3.01 -8 2.02 -8 1 C-5.07175348 0.02391783 -3.04386724 -0.08226668 0 0 Z " fill="#AE9FC0" transform="translate(319,410)"/>
<path d="M0 0 C2.31 0.66 4.62 1.32 7 2 C7 2.66 7 3.32 7 4 C7.66 4.33 8.32 4.66 9 5 C8.01 5.495 8.01 5.495 7 6 C5.83054208 5.19152271 4.66449539 4.37810888 3.5 3.5625 C2.8503125 3.11003906 2.200625 2.65757812 1.53125 2.19140625 C1.0259375 1.79824219 0.520625 1.40507812 0 1 C0 0.67 0 0.34 0 0 Z " fill="#AD9FC0" transform="translate(99,393)"/>
<path d="M0 0 C0.99 0 1.98 0 3 0 C2.39816251 2.02045442 1.72693904 4.02111039 1 6 C0.01 6.495 0.01 6.495 -1 7 C-2 4 -2 4 -1.0625 1.8125 C-0.5365625 0.9153125 -0.5365625 0.9153125 0 0 Z " fill="#8E908C" transform="translate(415,316)"/>
<path d="M0 0 C1.98 0.495 1.98 0.495 4 1 C3.67 2.32 3.34 3.64 3 5 C2.34 5 1.68 5 1 5 C1 4.34 1 3.68 1 3 C0.34 2.67 -0.32 2.34 -1 2 C-0.67 1.34 -0.34 0.68 0 0 Z " fill="#817F82" transform="translate(427,282)"/>
<path d="M0 0 C0.66 0.33 1.32 0.66 2 1 C1.67 3.31 1.34 5.62 1 8 C0.01 6.68 -0.98 5.36 -2 4 C-1.34 2.68 -0.68 1.36 0 0 Z " fill="#8C8C8D" transform="translate(434,263)"/>
<path d="M0 0 C1.32 0.33 2.64 0.66 4 1 C4 3.31 4 5.62 4 8 C1.84622436 5.37801226 0.59927826 3.35595828 0 0 Z " fill="#AEA0C3" transform="translate(231,250)"/>
<path d="M0 0 C2.475 0.99 2.475 0.99 5 2 C3.68 3.32 2.36 4.64 1 6 C0.34 5.01 -0.32 4.02 -1 3 C-0.67 2.01 -0.34 1.02 0 0 Z " fill="#7D7E7E" transform="translate(371,63)"/>
<path d="M0 0 C0.66 0.66 1.32 1.32 2 2 C0.71034824 3.37562854 -0.62689293 4.70766393 -2 6 C-2.66 6 -3.32 6 -4 6 C-2.84826645 3.53199953 -1.95216435 1.95216435 0 0 Z " fill="#6F6C71" transform="translate(91,48)"/>
<path d="M0 0 C1.98 0.66 3.96 1.32 6 2 C6 2.66 6 3.32 6 4 C3.69 3.67 1.38 3.34 -1 3 C-0.67 2.01 -0.34 1.02 0 0 Z " fill="#AE9EC2" transform="translate(310,26)"/>
<path d="M0 0 C-0.99 1.485 -0.99 1.485 -2 3 C-4.625 3.1875 -4.625 3.1875 -7 3 C-7.33 2.34 -7.66 1.68 -8 1 C-2.25 -1.125 -2.25 -1.125 0 0 Z " fill="#8C8B8C" transform="translate(157,14)"/>
</svg>
